%TF.GenerationSoftware,KiCad,Pcbnew,9.0.0*%
%TF.CreationDate,2025-03-19T11:42:27+05:30*%
%TF.ProjectId,buck converter,6275636b-2063-46f6-9e76-65727465722e,rev?*%
%TF.SameCoordinates,Original*%
%TF.FileFunction,Legend,Top*%
%TF.FilePolarity,Positive*%
%FSLAX46Y46*%
G04 Gerber Fmt 4.6, Leading zero omitted, Abs format (unit mm)*
G04 Created by KiCad (PCBNEW 9.0.0) date 2025-03-19 11:42:27*
%MOMM*%
%LPD*%
G01*
G04 APERTURE LIST*
%ADD10C,0.150000*%
%ADD11C,0.120000*%
G04 APERTURE END LIST*
D10*
X145054819Y-94761904D02*
X145864342Y-94761904D01*
X145864342Y-94761904D02*
X145959580Y-94714285D01*
X145959580Y-94714285D02*
X146007200Y-94666666D01*
X146007200Y-94666666D02*
X146054819Y-94571428D01*
X146054819Y-94571428D02*
X146054819Y-94380952D01*
X146054819Y-94380952D02*
X146007200Y-94285714D01*
X146007200Y-94285714D02*
X145959580Y-94238095D01*
X145959580Y-94238095D02*
X145864342Y-94190476D01*
X145864342Y-94190476D02*
X145054819Y-94190476D01*
X146054819Y-93190476D02*
X146054819Y-93761904D01*
X146054819Y-93476190D02*
X145054819Y-93476190D01*
X145054819Y-93476190D02*
X145197676Y-93571428D01*
X145197676Y-93571428D02*
X145292914Y-93666666D01*
X145292914Y-93666666D02*
X145340533Y-93761904D01*
X110454819Y-101095238D02*
X109978628Y-101428571D01*
X110454819Y-101666666D02*
X109454819Y-101666666D01*
X109454819Y-101666666D02*
X109454819Y-101285714D01*
X109454819Y-101285714D02*
X109502438Y-101190476D01*
X109502438Y-101190476D02*
X109550057Y-101142857D01*
X109550057Y-101142857D02*
X109645295Y-101095238D01*
X109645295Y-101095238D02*
X109788152Y-101095238D01*
X109788152Y-101095238D02*
X109883390Y-101142857D01*
X109883390Y-101142857D02*
X109931009Y-101190476D01*
X109931009Y-101190476D02*
X109978628Y-101285714D01*
X109978628Y-101285714D02*
X109978628Y-101666666D01*
X109454819Y-100809523D02*
X110454819Y-100476190D01*
X110454819Y-100476190D02*
X109454819Y-100142857D01*
X110454819Y-99285714D02*
X110454819Y-99857142D01*
X110454819Y-99571428D02*
X109454819Y-99571428D01*
X109454819Y-99571428D02*
X109597676Y-99666666D01*
X109597676Y-99666666D02*
X109692914Y-99761904D01*
X109692914Y-99761904D02*
X109740533Y-99857142D01*
X177333333Y-87904819D02*
X177000000Y-87428628D01*
X176761905Y-87904819D02*
X176761905Y-86904819D01*
X176761905Y-86904819D02*
X177142857Y-86904819D01*
X177142857Y-86904819D02*
X177238095Y-86952438D01*
X177238095Y-86952438D02*
X177285714Y-87000057D01*
X177285714Y-87000057D02*
X177333333Y-87095295D01*
X177333333Y-87095295D02*
X177333333Y-87238152D01*
X177333333Y-87238152D02*
X177285714Y-87333390D01*
X177285714Y-87333390D02*
X177238095Y-87381009D01*
X177238095Y-87381009D02*
X177142857Y-87428628D01*
X177142857Y-87428628D02*
X176761905Y-87428628D01*
X177666667Y-86904819D02*
X178285714Y-86904819D01*
X178285714Y-86904819D02*
X177952381Y-87285771D01*
X177952381Y-87285771D02*
X178095238Y-87285771D01*
X178095238Y-87285771D02*
X178190476Y-87333390D01*
X178190476Y-87333390D02*
X178238095Y-87381009D01*
X178238095Y-87381009D02*
X178285714Y-87476247D01*
X178285714Y-87476247D02*
X178285714Y-87714342D01*
X178285714Y-87714342D02*
X178238095Y-87809580D01*
X178238095Y-87809580D02*
X178190476Y-87857200D01*
X178190476Y-87857200D02*
X178095238Y-87904819D01*
X178095238Y-87904819D02*
X177809524Y-87904819D01*
X177809524Y-87904819D02*
X177714286Y-87857200D01*
X177714286Y-87857200D02*
X177666667Y-87809580D01*
X179333333Y-97404819D02*
X179000000Y-96928628D01*
X178761905Y-97404819D02*
X178761905Y-96404819D01*
X178761905Y-96404819D02*
X179142857Y-96404819D01*
X179142857Y-96404819D02*
X179238095Y-96452438D01*
X179238095Y-96452438D02*
X179285714Y-96500057D01*
X179285714Y-96500057D02*
X179333333Y-96595295D01*
X179333333Y-96595295D02*
X179333333Y-96738152D01*
X179333333Y-96738152D02*
X179285714Y-96833390D01*
X179285714Y-96833390D02*
X179238095Y-96881009D01*
X179238095Y-96881009D02*
X179142857Y-96928628D01*
X179142857Y-96928628D02*
X178761905Y-96928628D01*
X180285714Y-97404819D02*
X179714286Y-97404819D01*
X180000000Y-97404819D02*
X180000000Y-96404819D01*
X180000000Y-96404819D02*
X179904762Y-96547676D01*
X179904762Y-96547676D02*
X179809524Y-96642914D01*
X179809524Y-96642914D02*
X179714286Y-96690533D01*
X135866666Y-65624819D02*
X135866666Y-66339104D01*
X135866666Y-66339104D02*
X135819047Y-66481961D01*
X135819047Y-66481961D02*
X135723809Y-66577200D01*
X135723809Y-66577200D02*
X135580952Y-66624819D01*
X135580952Y-66624819D02*
X135485714Y-66624819D01*
X136295238Y-65720057D02*
X136342857Y-65672438D01*
X136342857Y-65672438D02*
X136438095Y-65624819D01*
X136438095Y-65624819D02*
X136676190Y-65624819D01*
X136676190Y-65624819D02*
X136771428Y-65672438D01*
X136771428Y-65672438D02*
X136819047Y-65720057D01*
X136819047Y-65720057D02*
X136866666Y-65815295D01*
X136866666Y-65815295D02*
X136866666Y-65910533D01*
X136866666Y-65910533D02*
X136819047Y-66053390D01*
X136819047Y-66053390D02*
X136247619Y-66624819D01*
X136247619Y-66624819D02*
X136866666Y-66624819D01*
X178666666Y-65704819D02*
X178666666Y-66419104D01*
X178666666Y-66419104D02*
X178619047Y-66561961D01*
X178619047Y-66561961D02*
X178523809Y-66657200D01*
X178523809Y-66657200D02*
X178380952Y-66704819D01*
X178380952Y-66704819D02*
X178285714Y-66704819D01*
X179666666Y-66704819D02*
X179095238Y-66704819D01*
X179380952Y-66704819D02*
X179380952Y-65704819D01*
X179380952Y-65704819D02*
X179285714Y-65847676D01*
X179285714Y-65847676D02*
X179190476Y-65942914D01*
X179190476Y-65942914D02*
X179095238Y-65990533D01*
X161261905Y-86204819D02*
X161261905Y-85204819D01*
X161261905Y-85204819D02*
X161500000Y-85204819D01*
X161500000Y-85204819D02*
X161642857Y-85252438D01*
X161642857Y-85252438D02*
X161738095Y-85347676D01*
X161738095Y-85347676D02*
X161785714Y-85442914D01*
X161785714Y-85442914D02*
X161833333Y-85633390D01*
X161833333Y-85633390D02*
X161833333Y-85776247D01*
X161833333Y-85776247D02*
X161785714Y-85966723D01*
X161785714Y-85966723D02*
X161738095Y-86061961D01*
X161738095Y-86061961D02*
X161642857Y-86157200D01*
X161642857Y-86157200D02*
X161500000Y-86204819D01*
X161500000Y-86204819D02*
X161261905Y-86204819D01*
X162214286Y-85300057D02*
X162261905Y-85252438D01*
X162261905Y-85252438D02*
X162357143Y-85204819D01*
X162357143Y-85204819D02*
X162595238Y-85204819D01*
X162595238Y-85204819D02*
X162690476Y-85252438D01*
X162690476Y-85252438D02*
X162738095Y-85300057D01*
X162738095Y-85300057D02*
X162785714Y-85395295D01*
X162785714Y-85395295D02*
X162785714Y-85490533D01*
X162785714Y-85490533D02*
X162738095Y-85633390D01*
X162738095Y-85633390D02*
X162166667Y-86204819D01*
X162166667Y-86204819D02*
X162785714Y-86204819D01*
X163761905Y-103654819D02*
X163761905Y-102654819D01*
X163761905Y-102654819D02*
X164000000Y-102654819D01*
X164000000Y-102654819D02*
X164142857Y-102702438D01*
X164142857Y-102702438D02*
X164238095Y-102797676D01*
X164238095Y-102797676D02*
X164285714Y-102892914D01*
X164285714Y-102892914D02*
X164333333Y-103083390D01*
X164333333Y-103083390D02*
X164333333Y-103226247D01*
X164333333Y-103226247D02*
X164285714Y-103416723D01*
X164285714Y-103416723D02*
X164238095Y-103511961D01*
X164238095Y-103511961D02*
X164142857Y-103607200D01*
X164142857Y-103607200D02*
X164000000Y-103654819D01*
X164000000Y-103654819D02*
X163761905Y-103654819D01*
X165285714Y-103654819D02*
X164714286Y-103654819D01*
X165000000Y-103654819D02*
X165000000Y-102654819D01*
X165000000Y-102654819D02*
X164904762Y-102797676D01*
X164904762Y-102797676D02*
X164809524Y-102892914D01*
X164809524Y-102892914D02*
X164714286Y-102940533D01*
X133333333Y-108059580D02*
X133285714Y-108107200D01*
X133285714Y-108107200D02*
X133142857Y-108154819D01*
X133142857Y-108154819D02*
X133047619Y-108154819D01*
X133047619Y-108154819D02*
X132904762Y-108107200D01*
X132904762Y-108107200D02*
X132809524Y-108011961D01*
X132809524Y-108011961D02*
X132761905Y-107916723D01*
X132761905Y-107916723D02*
X132714286Y-107726247D01*
X132714286Y-107726247D02*
X132714286Y-107583390D01*
X132714286Y-107583390D02*
X132761905Y-107392914D01*
X132761905Y-107392914D02*
X132809524Y-107297676D01*
X132809524Y-107297676D02*
X132904762Y-107202438D01*
X132904762Y-107202438D02*
X133047619Y-107154819D01*
X133047619Y-107154819D02*
X133142857Y-107154819D01*
X133142857Y-107154819D02*
X133285714Y-107202438D01*
X133285714Y-107202438D02*
X133333333Y-107250057D01*
X133714286Y-107250057D02*
X133761905Y-107202438D01*
X133761905Y-107202438D02*
X133857143Y-107154819D01*
X133857143Y-107154819D02*
X134095238Y-107154819D01*
X134095238Y-107154819D02*
X134190476Y-107202438D01*
X134190476Y-107202438D02*
X134238095Y-107250057D01*
X134238095Y-107250057D02*
X134285714Y-107345295D01*
X134285714Y-107345295D02*
X134285714Y-107440533D01*
X134285714Y-107440533D02*
X134238095Y-107583390D01*
X134238095Y-107583390D02*
X133666667Y-108154819D01*
X133666667Y-108154819D02*
X134285714Y-108154819D01*
X126333333Y-83659580D02*
X126285714Y-83707200D01*
X126285714Y-83707200D02*
X126142857Y-83754819D01*
X126142857Y-83754819D02*
X126047619Y-83754819D01*
X126047619Y-83754819D02*
X125904762Y-83707200D01*
X125904762Y-83707200D02*
X125809524Y-83611961D01*
X125809524Y-83611961D02*
X125761905Y-83516723D01*
X125761905Y-83516723D02*
X125714286Y-83326247D01*
X125714286Y-83326247D02*
X125714286Y-83183390D01*
X125714286Y-83183390D02*
X125761905Y-82992914D01*
X125761905Y-82992914D02*
X125809524Y-82897676D01*
X125809524Y-82897676D02*
X125904762Y-82802438D01*
X125904762Y-82802438D02*
X126047619Y-82754819D01*
X126047619Y-82754819D02*
X126142857Y-82754819D01*
X126142857Y-82754819D02*
X126285714Y-82802438D01*
X126285714Y-82802438D02*
X126333333Y-82850057D01*
X127285714Y-83754819D02*
X126714286Y-83754819D01*
X127000000Y-83754819D02*
X127000000Y-82754819D01*
X127000000Y-82754819D02*
X126904762Y-82897676D01*
X126904762Y-82897676D02*
X126809524Y-82992914D01*
X126809524Y-82992914D02*
X126714286Y-83040533D01*
D11*
%TO.C,U1*%
X146440000Y-94000000D02*
X146440000Y-95950000D01*
X146440000Y-94000000D02*
X146440000Y-92050000D01*
X151560000Y-94000000D02*
X151560000Y-95950000D01*
X151560000Y-94000000D02*
X151560000Y-92050000D01*
X146535000Y-96700000D02*
X146205000Y-96940000D01*
X146205000Y-96460000D01*
X146535000Y-96700000D01*
G36*
X146535000Y-96700000D02*
G01*
X146205000Y-96940000D01*
X146205000Y-96460000D01*
X146535000Y-96700000D01*
G37*
%TO.C,RV1*%
X113591000Y-103870000D02*
X115410000Y-103870000D01*
X111129000Y-103334000D02*
X111129000Y-97130000D01*
X117870000Y-103334000D02*
X117870000Y-97130000D01*
X111129000Y-97130000D02*
X113260000Y-97130000D01*
X115740000Y-97130000D02*
X117870000Y-97130000D01*
%TO.C,J2*%
X122600000Y-67320000D02*
X122600000Y-79520000D01*
X122600000Y-79520000D02*
X129200000Y-79520000D01*
X129200000Y-67320000D02*
X122600000Y-67320000D01*
X130500000Y-79520000D02*
X139400000Y-79520000D01*
X139400000Y-67320000D02*
X130500000Y-67320000D01*
X140600000Y-79520000D02*
X141800000Y-79520000D01*
X141800000Y-67320000D02*
X140600000Y-67320000D01*
X141800000Y-79520000D02*
X141800000Y-67320000D01*
%TO.C,J1*%
X165400000Y-67400000D02*
X165400000Y-79600000D01*
X165400000Y-79600000D02*
X172000000Y-79600000D01*
X172000000Y-67400000D02*
X165400000Y-67400000D01*
X173300000Y-79600000D02*
X182200000Y-79600000D01*
X182200000Y-67400000D02*
X173300000Y-67400000D01*
X183400000Y-79600000D02*
X184600000Y-79600000D01*
X184600000Y-67400000D02*
X183400000Y-67400000D01*
X184600000Y-79600000D02*
X184600000Y-67400000D01*
%TO.C,D2*%
X160540000Y-86640000D02*
X160540000Y-88360000D01*
X160540000Y-88360000D02*
X162800000Y-88360000D01*
X162800000Y-86640000D02*
X160540000Y-86640000D01*
%TO.C,D1*%
X163240000Y-103900000D02*
X163240000Y-105100000D01*
X165200000Y-103900000D02*
X163240000Y-103900000D01*
X165200000Y-105100000D02*
X163240000Y-105100000D01*
%TO.C,C2*%
X135875000Y-106435000D02*
X135500000Y-106435000D01*
X135687500Y-106622500D02*
X135687500Y-106247500D01*
X135070563Y-106060000D02*
X134370563Y-106760000D01*
X135070563Y-103940000D02*
X134370563Y-103240000D01*
X134370563Y-106760000D02*
X131740000Y-106760000D01*
X134370563Y-103240000D02*
X131740000Y-103240000D01*
X131740000Y-106760000D02*
X131740000Y-106060000D01*
X131740000Y-103240000D02*
X131740000Y-103940000D01*
%TO.C,C1*%
X124125000Y-84565000D02*
X124500000Y-84565000D01*
X124312500Y-84377500D02*
X124312500Y-84752500D01*
X124929437Y-84940000D02*
X125629437Y-84240000D01*
X124929437Y-87060000D02*
X125629437Y-87760000D01*
X125629437Y-84240000D02*
X128260000Y-84240000D01*
X125629437Y-87760000D02*
X128260000Y-87760000D01*
X128260000Y-84240000D02*
X128260000Y-84940000D01*
X128260000Y-87760000D02*
X128260000Y-87060000D01*
%TD*%
M02*
