%TF.GenerationSoftware,KiCad,Pcbnew,9.0.0*%
%TF.CreationDate,2025-03-19T11:42:27+05:30*%
%TF.ProjectId,buck converter,6275636b-2063-46f6-9e76-65727465722e,rev?*%
%TF.SameCoordinates,Original*%
%TF.FileFunction,Copper,L1,Top*%
%TF.FilePolarity,Positive*%
%FSLAX46Y46*%
G04 Gerber Fmt 4.6, Leading zero omitted, Abs format (unit mm)*
G04 Created by KiCad (PCBNEW 9.0.0) date 2025-03-19 11:42:27*
%MOMM*%
%LPD*%
G01*
G04 APERTURE LIST*
G04 Aperture macros list*
%AMRoundRect*
0 Rectangle with rounded corners*
0 $1 Rounding radius*
0 $2 $3 $4 $5 $6 $7 $8 $9 X,Y pos of 4 corners*
0 Add a 4 corners polygon primitive as box body*
4,1,4,$2,$3,$4,$5,$6,$7,$8,$9,$2,$3,0*
0 Add four circle primitives for the rounded corners*
1,1,$1+$1,$2,$3*
1,1,$1+$1,$4,$5*
1,1,$1+$1,$6,$7*
1,1,$1+$1,$8,$9*
0 Add four rect primitives between the rounded corners*
20,1,$1+$1,$2,$3,$4,$5,0*
20,1,$1+$1,$4,$5,$6,$7,0*
20,1,$1+$1,$6,$7,$8,$9,0*
20,1,$1+$1,$8,$9,$2,$3,0*%
G04 Aperture macros list end*
%TA.AperFunction,Conductor*%
%ADD10C,0.200000*%
%TD*%
%TA.AperFunction,SMDPad,CuDef*%
%ADD11RoundRect,0.150000X0.150000X-0.825000X0.150000X0.825000X-0.150000X0.825000X-0.150000X-0.825000X0*%
%TD*%
%TA.AperFunction,SMDPad,CuDef*%
%ADD12R,2.000000X2.500000*%
%TD*%
%TA.AperFunction,SMDPad,CuDef*%
%ADD13RoundRect,0.100000X-0.130000X-0.100000X0.130000X-0.100000X0.130000X0.100000X-0.130000X0.100000X0*%
%TD*%
%TA.AperFunction,WasherPad*%
%ADD14C,1.700000*%
%TD*%
%TA.AperFunction,ComponentPad*%
%ADD15C,3.500000*%
%TD*%
%TA.AperFunction,SMDPad,CuDef*%
%ADD16RoundRect,0.200000X-0.200000X-0.400000X0.200000X-0.400000X0.200000X0.400000X-0.200000X0.400000X0*%
%TD*%
%TA.AperFunction,SMDPad,CuDef*%
%ADD17RoundRect,0.150000X0.150000X0.200000X-0.150000X0.200000X-0.150000X-0.200000X0.150000X-0.200000X0*%
%TD*%
%TA.AperFunction,SMDPad,CuDef*%
%ADD18R,2.200000X1.600000*%
%TD*%
%TA.AperFunction,ViaPad*%
%ADD19C,0.600000*%
%TD*%
%TA.AperFunction,Conductor*%
%ADD20C,0.300000*%
%TD*%
G04 APERTURE END LIST*
D10*
%TO.N,Net-(D1-A)*%
X161500000Y-99500000D02*
X165000000Y-104500000D01*
X156500000Y-93500000D02*
X156000000Y-92500000D01*
%TD*%
D11*
%TO.P,U1,1,GND*%
%TO.N,GND*%
X147095000Y-96475000D03*
%TO.P,U1,2,TR*%
%TO.N,Net-(U1-TR)*%
X148365000Y-96475000D03*
%TO.P,U1,3,Q*%
%TO.N,Net-(U1-Q)*%
X149635000Y-96475000D03*
%TO.P,U1,4,R*%
%TO.N,Net-(J1-Pin_1)*%
X150905000Y-96475000D03*
%TO.P,U1,5,CV*%
%TO.N,Net-(U1-CV)*%
X150905000Y-91525000D03*
%TO.P,U1,6,THR*%
%TO.N,Net-(U1-THR)*%
X149635000Y-91525000D03*
%TO.P,U1,7,DIS*%
%TO.N,Net-(D1-A)*%
X148365000Y-91525000D03*
%TO.P,U1,8,VCC*%
%TO.N,Net-(J1-Pin_1)*%
X147095000Y-91525000D03*
%TD*%
D12*
%TO.P,RV1,1,1*%
%TO.N,Net-(D2-A)*%
X116650000Y-104825000D03*
%TO.P,RV1,2,2*%
%TO.N,Net-(U1-THR)*%
X114500000Y-96175000D03*
%TO.P,RV1,3,3*%
%TO.N,Net-(D1-K)*%
X112350000Y-104825000D03*
%TD*%
D13*
%TO.P,R3,1*%
%TO.N,Net-(J1-Pin_1)*%
X177180000Y-88500000D03*
%TO.P,R3,2*%
%TO.N,Net-(D1-A)*%
X177820000Y-88500000D03*
%TD*%
%TO.P,R1,1*%
%TO.N,Net-(Q1-G)*%
X179180000Y-98000000D03*
%TO.P,R1,2*%
%TO.N,Net-(U1-Q)*%
X179820000Y-98000000D03*
%TD*%
D14*
%TO.P,J2,*%
%TO.N,*%
X129840000Y-68340000D03*
X129840000Y-78500000D03*
X140000000Y-68340000D03*
X140000000Y-78500000D03*
D15*
%TO.P,J2,1,Pin_1*%
%TO.N,Net-(J1-Pin_1)*%
X136200000Y-73420000D03*
%TD*%
D14*
%TO.P,J1,*%
%TO.N,*%
X172640000Y-68420000D03*
X172640000Y-78580000D03*
X182800000Y-68420000D03*
X182800000Y-78580000D03*
D15*
%TO.P,J1,1,Pin_1*%
%TO.N,Net-(J1-Pin_1)*%
X179000000Y-73500000D03*
%TD*%
D16*
%TO.P,D2,1,K*%
%TO.N,Net-(D1-A)*%
X161200000Y-87500000D03*
%TO.P,D2,2,A*%
%TO.N,Net-(D2-A)*%
X162800000Y-87500000D03*
%TD*%
D17*
%TO.P,D1,1,K*%
%TO.N,Net-(D1-K)*%
X163800000Y-104500000D03*
%TO.P,D1,2,A*%
%TO.N,Net-(D1-A)*%
X165200000Y-104500000D03*
%TD*%
D18*
%TO.P,C2,1*%
%TO.N,Net-(U1-TR)*%
X135000000Y-105000000D03*
%TO.P,C2,2*%
%TO.N,GND*%
X132000000Y-105000000D03*
%TD*%
%TO.P,C1,1*%
%TO.N,Net-(U1-CV)*%
X125000000Y-86000000D03*
%TO.P,C1,2*%
%TO.N,GND*%
X128000000Y-86000000D03*
%TD*%
D19*
%TO.N,Net-(D1-A)*%
X156500000Y-93500000D03*
X161500000Y-99500000D03*
%TD*%
D10*
%TO.N,Net-(J1-Pin_1)*%
X178110586Y-88981000D02*
X179000000Y-88091586D01*
X177529414Y-88981000D02*
X178110586Y-88981000D01*
X175299000Y-86750586D02*
X177529414Y-88981000D01*
X175299000Y-86619000D02*
X175299000Y-86750586D01*
X179000000Y-88091586D02*
X179000000Y-73500000D01*
%TO.N,Net-(D1-A)*%
X177820000Y-88368414D02*
X177820000Y-88500000D01*
X175689586Y-86238000D02*
X177820000Y-88368414D01*
X161862000Y-86238000D02*
X175689586Y-86238000D01*
X161200000Y-86900000D02*
X161862000Y-86238000D01*
X161200000Y-87500000D02*
X161200000Y-86900000D01*
%TO.N,Net-(J1-Pin_1)*%
X162119000Y-86895222D02*
X162395222Y-86619000D01*
X175299000Y-86619000D02*
X177180000Y-88500000D01*
X162119000Y-93569000D02*
X162119000Y-86895222D01*
X162395222Y-86619000D02*
X175299000Y-86619000D01*
X159213000Y-96475000D02*
X162119000Y-93569000D01*
X150905000Y-96475000D02*
X159213000Y-96475000D01*
X177180000Y-88680000D02*
X177180000Y-88500000D01*
%TO.N,Net-(D2-A)*%
X115119000Y-103294000D02*
X116650000Y-104825000D01*
X111069000Y-103294000D02*
X115119000Y-103294000D01*
X111069000Y-106356000D02*
X111069000Y-103294000D01*
X171854586Y-106737000D02*
X111450000Y-106737000D01*
X180331000Y-98260586D02*
X171854586Y-106737000D01*
X111450000Y-106737000D02*
X111069000Y-106356000D01*
X180331000Y-97739414D02*
X180331000Y-98260586D01*
X170091586Y-87500000D02*
X180331000Y-97739414D01*
X162800000Y-87500000D02*
X170091586Y-87500000D01*
%TO.N,Net-(D1-A)*%
X155919000Y-92781000D02*
X161200000Y-87500000D01*
X148646001Y-92781000D02*
X155919000Y-92781000D01*
X148365000Y-92499999D02*
X148646001Y-92781000D01*
X148365000Y-91525000D02*
X148365000Y-92499999D01*
%TO.N,Net-(U1-CV)*%
X150905000Y-84713916D02*
X150905000Y-91525000D01*
X135200917Y-71008000D02*
X137199084Y-71008000D01*
X113219000Y-92989917D02*
X135200917Y-71008000D01*
X113219000Y-97706000D02*
X113219000Y-92989917D01*
X125000000Y-88487000D02*
X115781000Y-97706000D01*
X115781000Y-97706000D02*
X113219000Y-97706000D01*
X125000000Y-86000000D02*
X125000000Y-88487000D01*
X137199084Y-71008000D02*
X150905000Y-84713916D01*
%TO.N,Net-(U1-THR)*%
X135358732Y-71389000D02*
X137041268Y-71389000D01*
X134169000Y-72578732D02*
X135358732Y-71389000D01*
X137041268Y-71389000D02*
X149635000Y-83982732D01*
X126331000Y-80669000D02*
X134169000Y-80669000D01*
X149635000Y-83982732D02*
X149635000Y-91525000D01*
X114500000Y-92500000D02*
X126331000Y-80669000D01*
X134169000Y-80669000D02*
X134169000Y-72578732D01*
X114500000Y-96175000D02*
X114500000Y-92500000D01*
%TO.N,Net-(D1-K)*%
X130344000Y-106356000D02*
X130619000Y-106081000D01*
X112350000Y-104825000D02*
X113881000Y-106356000D01*
X113881000Y-106356000D02*
X130344000Y-106356000D01*
%TO.N,Net-(U1-Q)*%
X179538999Y-97519000D02*
X179820000Y-97800001D01*
X178889414Y-97519000D02*
X179538999Y-97519000D01*
X179820000Y-97800001D02*
X179820000Y-98000000D01*
X178669000Y-97739414D02*
X178889414Y-97519000D01*
X149635000Y-97449999D02*
X149924415Y-97739414D01*
X149924415Y-97739414D02*
X178669000Y-97739414D01*
X149635000Y-96475000D02*
X149635000Y-97449999D01*
%TO.N,Net-(U1-TR)*%
X148365000Y-97449999D02*
X148365000Y-96475000D01*
X140814999Y-105000000D02*
X148365000Y-97449999D01*
X135000000Y-105000000D02*
X140814999Y-105000000D01*
%TO.N,Net-(D1-K)*%
X162219000Y-106081000D02*
X163800000Y-104500000D01*
X130619000Y-106081000D02*
X162219000Y-106081000D01*
%TO.N,Net-(J1-Pin_1)*%
X150905000Y-96156318D02*
X150905000Y-96475000D01*
X136200000Y-81451318D02*
X150905000Y-96156318D01*
X136200000Y-73420000D02*
X136200000Y-81451318D01*
D20*
%TO.N,GND*%
X132000000Y-105000000D02*
X140525000Y-96475000D01*
X140525000Y-96475000D02*
X147095000Y-96475000D01*
X128000000Y-101000000D02*
X132000000Y-105000000D01*
X128000000Y-86000000D02*
X128000000Y-101000000D01*
%TD*%
M02*
